<svg width="32" height="32" viewBox="0 0 32 32" fill="none" xmlns="http://www.w3.org/2000/svg">
<circle cx="16" cy="16" r="16" fill="white"/>
<path d="M10.1181 17.0536H13.1048L12.5416 15.4664C12.3823 14.9885 12.2287 14.5391 12.0808 14.1181C11.9443 13.6972 11.802 13.2364 11.6541 12.7357H11.62C11.4607 13.2022 11.3071 13.6573 11.1592 14.1011C11.0113 14.5334 10.852 14.9885 10.6813 15.4664L10.1181 17.0536ZM10.6301 10.5H12.7123L16.7912 21.252H14.5896L13.6339 18.6067H9.6232L8.66747 21.252H6.5L10.6301 10.5Z" fill="#3423A6"/>
<rect x="18.1367" y="20.1152" width="7" height="1.25" rx="0.5" fill="#3423A6"/>
<rect x="18.1367" y="20.1152" width="7" height="1.25" rx="0.5" fill="#3423A6"/>
<rect x="18.1367" y="20.1152" width="7" height="1.25" rx="0.5" fill="#3423A6"/>
<rect x="18.1367" y="17.3652" width="7" height="1.25" rx="0.5" fill="#3423A6"/>
<rect x="18.1367" y="17.3652" width="7" height="1.25" rx="0.5" fill="#3423A6"/>
<rect x="18.1367" y="17.3652" width="7" height="1.25" rx="0.5" fill="#3423A6"/>
<rect x="18.1367" y="14.6152" width="7" height="1.25" rx="0.5" fill="#3423A6"/>
<rect x="18.1367" y="14.6152" width="7" height="1.25" rx="0.5" fill="#3423A6"/>
<rect x="18.1367" y="14.6152" width="7" height="1.25" rx="0.5" fill="#3423A6"/>
</svg>
