<svg width="71" height="32" viewBox="0 0 71 32" fill="none" xmlns="http://www.w3.org/2000/svg">
<circle cx="16" cy="16" r="16" fill="#3423A6"/>
<path d="M10.1181 17.0536H13.1048L12.5416 15.4664C12.3823 14.9885 12.2287 14.5391 12.0808 14.1181C11.9443 13.6972 11.802 13.2364 11.6541 12.7357H11.62C11.4607 13.2022 11.3071 13.6573 11.1592 14.1011C11.0113 14.5334 10.852 14.9885 10.6813 15.4664L10.1181 17.0536ZM10.6301 10.5H12.7123L16.7912 21.252H14.5896L13.6339 18.6067H9.6232L8.66747 21.252H6.5L10.6301 10.5Z" fill="white"/>
<rect x="18.1367" y="20.1152" width="7" height="1.25" rx="0.5" fill="white"/>
<rect x="18.1367" y="20.1152" width="7" height="1.25" rx="0.5" fill="white"/>
<rect x="18.1367" y="20.1152" width="7" height="1.25" rx="0.5" fill="white"/>
<rect x="18.1367" y="17.3652" width="7" height="1.25" rx="0.5" fill="white"/>
<rect x="18.1367" y="17.3652" width="7" height="1.25" rx="0.5" fill="white"/>
<rect x="18.1367" y="17.3652" width="7" height="1.25" rx="0.5" fill="white"/>
<rect x="18.1367" y="14.6152" width="7" height="1.25" rx="0.5" fill="white"/>
<rect x="18.1367" y="14.6152" width="7" height="1.25" rx="0.5" fill="white"/>
<rect x="18.1367" y="14.6152" width="7" height="1.25" rx="0.5" fill="white"/>
<path d="M41.5464 17.9936H45.2994L44.5917 15.9992C44.3915 15.3987 44.1985 14.834 44.0127 14.305C43.8411 13.776 43.6624 13.1969 43.4765 12.5679H43.4336C43.2335 13.1541 43.0405 13.7259 42.8546 14.2835C42.6687 14.8268 42.4686 15.3987 42.2541 15.9992L41.5464 17.9936ZM42.1898 9.75853H44.8061L49.9316 23.2692H47.1651L45.9642 19.9451H40.9245L39.7236 23.2692H37L42.1898 9.75853Z" fill="#3423A6"/>
<path d="M51.6937 23.2692V13.0826H54.2242V23.2692H51.6937ZM52.9589 10.745C52.5157 10.745 52.1655 10.6163 51.9081 10.359C51.6651 10.1017 51.5435 9.77997 51.5435 9.39395C51.5435 9.02223 51.6722 8.7077 51.9296 8.45035C52.1869 8.17871 52.53 8.04289 52.9589 8.04289C53.3735 8.04289 53.7095 8.17156 53.9669 8.42891C54.2242 8.68625 54.3529 9.00794 54.3529 9.39395C54.3529 9.77997 54.2242 10.1017 53.9669 10.359C53.7095 10.6163 53.3735 10.745 52.9589 10.745Z" fill="#3423A6"/>
<path d="M59.6848 19.7521V23.2692H57.1756V8H59.6848V17.2001L63.3305 13.0826H66.4186L62.4083 17.3717L66.5902 23.2692H63.6093L60.5855 18.8514L59.6848 19.7521Z" fill="#3423A6"/>
<path d="M68.2594 23.2692V13.0826H70.79V23.2692H68.2594ZM69.5247 10.745C69.0815 10.745 68.7312 10.6163 68.4739 10.359C68.2308 10.1017 68.1093 9.77997 68.1093 9.39395C68.1093 9.02223 68.238 8.7077 68.4953 8.45035C68.7527 8.17871 69.0958 8.04289 69.5247 8.04289C69.9393 8.04289 70.2753 8.17156 70.5326 8.42891C70.79 8.68625 70.9187 9.00794 70.9187 9.39395C70.9187 9.77997 70.79 10.1017 70.5326 10.359C70.2753 10.6163 69.9393 10.745 69.5247 10.745Z" fill="#3423A6"/>
</svg>
